<mxfile host="app.diagrams.net" modified="2023-03-10T04:55:49.556Z" agent="5.0 (Windows NT 10.0; Win64; x64) AppleWebKit/537.36 (KHTML, like Gecko) Chrome/110.0.0.0 Safari/537.36" etag="xFFiCX77fdh7wroKfxj6" version="21.0.2" type="github">
  <diagram id="-KNS_frNK4O9yv3_JdxB" name="Page-1">
    <mxGraphModel dx="1050" dy="590" grid="1" gridSize="10" guides="1" tooltips="1" connect="1" arrows="1" fold="1" page="1" pageScale="1" pageWidth="850" pageHeight="1100" math="0" shadow="0">
      <root>
        <mxCell id="0" />
        <mxCell id="1" parent="0" />
        <mxCell id="vJ8YAbP-WHLEkj6IoBdA-1" value="" style="edgeStyle=orthogonalEdgeStyle;rounded=0;orthogonalLoop=1;jettySize=auto;html=1;" parent="1" target="vJ8YAbP-WHLEkj6IoBdA-4" edge="1">
          <mxGeometry relative="1" as="geometry">
            <mxPoint x="220" y="190" as="sourcePoint" />
          </mxGeometry>
        </mxCell>
        <mxCell id="9tbChp5C0hofWB9nRkcC-2" value="" style="edgeStyle=orthogonalEdgeStyle;rounded=0;orthogonalLoop=1;jettySize=auto;html=1;" edge="1" parent="1" source="vJ8YAbP-WHLEkj6IoBdA-2" target="9tbChp5C0hofWB9nRkcC-1">
          <mxGeometry relative="1" as="geometry" />
        </mxCell>
        <mxCell id="vJ8YAbP-WHLEkj6IoBdA-2" value="MULAI" style="strokeWidth=2;html=1;shape=mxgraph.flowchart.start_1;whiteSpace=wrap;" parent="1" vertex="1">
          <mxGeometry x="170" y="40" width="100" height="60" as="geometry" />
        </mxCell>
        <mxCell id="vJ8YAbP-WHLEkj6IoBdA-3" value="" style="edgeStyle=orthogonalEdgeStyle;rounded=0;orthogonalLoop=1;jettySize=auto;html=1;" parent="1" source="vJ8YAbP-WHLEkj6IoBdA-4" target="vJ8YAbP-WHLEkj6IoBdA-6" edge="1">
          <mxGeometry relative="1" as="geometry" />
        </mxCell>
        <mxCell id="vJ8YAbP-WHLEkj6IoBdA-4" value="Instalasi dan commisioning SDR" style="rounded=1;whiteSpace=wrap;html=1;absoluteArcSize=1;arcSize=14;strokeWidth=2;" parent="1" vertex="1">
          <mxGeometry x="105" y="220" width="230" height="50" as="geometry" />
        </mxCell>
        <mxCell id="vJ8YAbP-WHLEkj6IoBdA-5" value="" style="edgeStyle=orthogonalEdgeStyle;rounded=0;orthogonalLoop=1;jettySize=auto;html=1;" parent="1" source="vJ8YAbP-WHLEkj6IoBdA-6" target="vJ8YAbP-WHLEkj6IoBdA-8" edge="1">
          <mxGeometry relative="1" as="geometry" />
        </mxCell>
        <mxCell id="vJ8YAbP-WHLEkj6IoBdA-6" value="&lt;div&gt;Instalasi dan commisioning database,&lt;/div&gt;&lt;div&gt;webui, dan open5gs&lt;/div&gt;" style="rounded=1;whiteSpace=wrap;html=1;absoluteArcSize=1;arcSize=14;strokeWidth=2;" parent="1" vertex="1">
          <mxGeometry x="105" y="300" width="230" height="50" as="geometry" />
        </mxCell>
        <mxCell id="vJ8YAbP-WHLEkj6IoBdA-7" value="" style="edgeStyle=orthogonalEdgeStyle;rounded=0;orthogonalLoop=1;jettySize=auto;html=1;" parent="1" source="vJ8YAbP-WHLEkj6IoBdA-8" target="vJ8YAbP-WHLEkj6IoBdA-17" edge="1">
          <mxGeometry relative="1" as="geometry" />
        </mxCell>
        <mxCell id="vJ8YAbP-WHLEkj6IoBdA-8" value="Instalasi dan commisioning srsRAN" style="rounded=1;whiteSpace=wrap;html=1;absoluteArcSize=1;arcSize=14;strokeWidth=2;" parent="1" vertex="1">
          <mxGeometry x="105" y="380" width="230" height="50" as="geometry" />
        </mxCell>
        <mxCell id="vJ8YAbP-WHLEkj6IoBdA-11" value="" style="edgeStyle=orthogonalEdgeStyle;rounded=0;orthogonalLoop=1;jettySize=auto;html=1;" parent="1" source="vJ8YAbP-WHLEkj6IoBdA-12" target="vJ8YAbP-WHLEkj6IoBdA-26" edge="1">
          <mxGeometry relative="1" as="geometry" />
        </mxCell>
        <mxCell id="vJ8YAbP-WHLEkj6IoBdA-12" value="Testing skenario&lt;br&gt;&lt;br&gt;1. Ping test&lt;br&gt;2. Registration" style="rounded=1;whiteSpace=wrap;html=1;absoluteArcSize=1;arcSize=14;strokeWidth=2;" parent="1" vertex="1">
          <mxGeometry x="420" y="357.5" width="230" height="85" as="geometry" />
        </mxCell>
        <mxCell id="9tbChp5C0hofWB9nRkcC-5" style="edgeStyle=orthogonalEdgeStyle;rounded=0;orthogonalLoop=1;jettySize=auto;html=1;entryX=0.5;entryY=1;entryDx=0;entryDy=0;" edge="1" parent="1" source="vJ8YAbP-WHLEkj6IoBdA-17" target="vJ8YAbP-WHLEkj6IoBdA-12">
          <mxGeometry relative="1" as="geometry" />
        </mxCell>
        <mxCell id="9tbChp5C0hofWB9nRkcC-8" value="Tidak" style="edgeLabel;html=1;align=center;verticalAlign=middle;resizable=0;points=[];" vertex="1" connectable="0" parent="9tbChp5C0hofWB9nRkcC-5">
          <mxGeometry x="-0.3184" relative="1" as="geometry">
            <mxPoint x="-80" y="-10" as="offset" />
          </mxGeometry>
        </mxCell>
        <mxCell id="9tbChp5C0hofWB9nRkcC-6" style="edgeStyle=orthogonalEdgeStyle;rounded=0;orthogonalLoop=1;jettySize=auto;html=1;entryX=0;entryY=0.5;entryDx=0;entryDy=0;" edge="1" parent="1" source="vJ8YAbP-WHLEkj6IoBdA-17" target="vJ8YAbP-WHLEkj6IoBdA-4">
          <mxGeometry relative="1" as="geometry">
            <mxPoint x="40" y="240" as="targetPoint" />
            <Array as="points">
              <mxPoint x="60" y="500" />
              <mxPoint x="60" y="245" />
            </Array>
          </mxGeometry>
        </mxCell>
        <mxCell id="9tbChp5C0hofWB9nRkcC-7" value="Iya" style="edgeLabel;html=1;align=center;verticalAlign=middle;resizable=0;points=[];" vertex="1" connectable="0" parent="9tbChp5C0hofWB9nRkcC-6">
          <mxGeometry x="-0.8015" y="1" relative="1" as="geometry">
            <mxPoint x="4" y="-11" as="offset" />
          </mxGeometry>
        </mxCell>
        <mxCell id="vJ8YAbP-WHLEkj6IoBdA-17" value="&lt;div&gt;Cek apakah&lt;/div&gt;&lt;div&gt;ada error?&lt;br&gt;&lt;/div&gt;" style="strokeWidth=2;html=1;shape=mxgraph.flowchart.decision;whiteSpace=wrap;" parent="1" vertex="1">
          <mxGeometry x="155" y="460" width="130" height="80" as="geometry" />
        </mxCell>
        <mxCell id="vJ8YAbP-WHLEkj6IoBdA-23" style="edgeStyle=orthogonalEdgeStyle;rounded=0;orthogonalLoop=1;jettySize=auto;html=1;entryX=1;entryY=0.5;entryDx=0;entryDy=0;" parent="1" source="vJ8YAbP-WHLEkj6IoBdA-26" edge="1" target="vJ8YAbP-WHLEkj6IoBdA-12">
          <mxGeometry relative="1" as="geometry">
            <Array as="points">
              <mxPoint x="680" y="288" />
              <mxPoint x="680" y="400" />
            </Array>
            <mxPoint x="650" y="392.5" as="targetPoint" />
          </mxGeometry>
        </mxCell>
        <mxCell id="vJ8YAbP-WHLEkj6IoBdA-24" value="Tidak" style="edgeLabel;html=1;align=center;verticalAlign=middle;resizable=0;points=[];" parent="vJ8YAbP-WHLEkj6IoBdA-23" vertex="1" connectable="0">
          <mxGeometry x="-0.6911" relative="1" as="geometry">
            <mxPoint x="-12" y="13" as="offset" />
          </mxGeometry>
        </mxCell>
        <mxCell id="vJ8YAbP-WHLEkj6IoBdA-25" value="" style="edgeStyle=orthogonalEdgeStyle;rounded=0;orthogonalLoop=1;jettySize=auto;html=1;" parent="1" source="vJ8YAbP-WHLEkj6IoBdA-26" target="vJ8YAbP-WHLEkj6IoBdA-28" edge="1">
          <mxGeometry relative="1" as="geometry" />
        </mxCell>
        <mxCell id="vJ8YAbP-WHLEkj6IoBdA-26" value="berhasil?" style="strokeWidth=2;html=1;shape=mxgraph.flowchart.decision;whiteSpace=wrap;" parent="1" vertex="1">
          <mxGeometry x="470" y="247.5" width="130" height="80" as="geometry" />
        </mxCell>
        <mxCell id="vJ8YAbP-WHLEkj6IoBdA-27" value="" style="edgeStyle=orthogonalEdgeStyle;rounded=0;orthogonalLoop=1;jettySize=auto;html=1;" parent="1" source="vJ8YAbP-WHLEkj6IoBdA-28" target="vJ8YAbP-WHLEkj6IoBdA-30" edge="1">
          <mxGeometry relative="1" as="geometry" />
        </mxCell>
        <mxCell id="vJ8YAbP-WHLEkj6IoBdA-28" value="Pencatatan hasil dan analisis" style="rounded=1;whiteSpace=wrap;html=1;absoluteArcSize=1;arcSize=14;strokeWidth=2;" parent="1" vertex="1">
          <mxGeometry x="420" y="162.5" width="230" height="50" as="geometry" />
        </mxCell>
        <mxCell id="vJ8YAbP-WHLEkj6IoBdA-29" value="Ya" style="edgeLabel;html=1;align=center;verticalAlign=middle;resizable=0;points=[];" parent="1" vertex="1" connectable="0">
          <mxGeometry x="560" y="447.4966666666667" as="geometry">
            <mxPoint x="-10" y="-213" as="offset" />
          </mxGeometry>
        </mxCell>
        <mxCell id="vJ8YAbP-WHLEkj6IoBdA-30" value="SELESAI" style="strokeWidth=2;html=1;shape=mxgraph.flowchart.start_1;whiteSpace=wrap;" parent="1" vertex="1">
          <mxGeometry x="485" y="60" width="100" height="60" as="geometry" />
        </mxCell>
        <mxCell id="9tbChp5C0hofWB9nRkcC-1" value="&lt;div&gt;Instalasi Ubuntu&lt;/div&gt;" style="rounded=1;whiteSpace=wrap;html=1;absoluteArcSize=1;arcSize=14;strokeWidth=2;" vertex="1" parent="1">
          <mxGeometry x="105" y="140" width="230" height="50" as="geometry" />
        </mxCell>
      </root>
    </mxGraphModel>
  </diagram>
</mxfile>
